<svg width="24" height="33" viewBox="0 0 24 33" fill="none" xmlns="http://www.w3.org/2000/svg">
<path d="M24 6.00001C24.0014 5.85591 23.9457 5.71712 23.845 5.61401L18.386 0.160009C18.3356 0.108945 18.2755 0.0684826 18.2092 0.0410045C18.1429 0.0135265 18.0718 -0.000412118 18 9.27701e-06H1.636C1.20211 9.27701e-06 0.785981 0.172373 0.479172 0.479183C0.172362 0.785992 0 1.20212 0 1.63601V31.091C0 31.5249 0.172362 31.941 0.479172 32.2478C0.785981 32.5546 1.20211 32.727 1.636 32.727H22.364C22.7979 32.727 23.214 32.5546 23.5208 32.2478C23.8276 31.941 24 31.5249 24 31.091V6.00001ZM18.55 1.86201L22.142 5.45401H19.091C18.9465 5.45401 18.8078 5.39659 18.7056 5.29438C18.6034 5.19217 18.546 5.05355 18.546 4.90901L18.55 1.86201ZM22.914 31.091C22.914 31.1626 22.8999 31.2334 22.8725 31.2996C22.8451 31.3657 22.805 31.4258 22.7544 31.4764C22.7038 31.527 22.6437 31.5671 22.5776 31.5945C22.5114 31.6219 22.4406 31.636 22.369 31.636H1.636C1.56443 31.636 1.49356 31.6219 1.42744 31.5945C1.36131 31.5671 1.30123 31.527 1.25063 31.4764C1.20002 31.4258 1.15987 31.3657 1.13248 31.2996C1.1051 31.2334 1.091 31.1626 1.091 31.091V1.63601C1.091 1.49147 1.14842 1.35284 1.25063 1.25064C1.35283 1.14843 1.49146 1.09101 1.636 1.09101H17.455V4.90901C17.455 5.3429 17.6274 5.75903 17.9342 6.06584C18.241 6.37265 18.6571 6.54501 19.091 6.54501H22.909L22.914 31.091Z" fill="white"/>
<path d="M5.454 14.7271C5.13043 14.7271 4.81412 14.823 4.54508 15.0028C4.27605 15.1825 4.06635 15.438 3.94253 15.737C3.8187 16.0359 3.7863 16.3649 3.84943 16.6822C3.91255 16.9996 4.06837 17.2911 4.29717 17.5199C4.52597 17.7487 4.81748 17.9045 5.13483 17.9676C5.45218 18.0307 5.78112 17.9983 6.08006 17.8745C6.379 17.7507 6.63451 17.541 6.81428 17.272C6.99405 17.0029 7.09 16.6866 7.09 16.3631C7.09 15.9292 6.91763 15.513 6.61082 15.2062C6.30401 14.8994 5.88789 14.7271 5.454 14.7271ZM5.454 16.9091C5.34621 16.9091 5.24083 16.8771 5.15121 16.8172C5.06158 16.7573 4.99173 16.6722 4.95048 16.5726C4.90923 16.473 4.89844 16.3634 4.91947 16.2577C4.9405 16.152 4.9924 16.0549 5.06862 15.9787C5.14484 15.9025 5.24195 15.8506 5.34767 15.8295C5.45339 15.8085 5.56297 15.8193 5.66255 15.8605C5.76214 15.9018 5.84726 15.9716 5.90714 16.0613C5.96703 16.1509 5.99899 16.2563 5.99899 16.364C5.99899 16.5086 5.94157 16.6472 5.83937 16.7494C5.73716 16.8516 5.59854 16.9091 5.454 16.9091Z" fill="white"/>
<path d="M20 15.9091H9V16.9091H20V15.9091Z" fill="white"/>
<path d="M5.454 9.27295C5.13043 9.27295 4.81412 9.36889 4.54508 9.54866C4.27605 9.72843 4.06635 9.98394 3.94253 10.2829C3.8187 10.5818 3.7863 10.9108 3.84943 11.2281C3.91255 11.5455 4.06837 11.837 4.29717 12.0658C4.52597 12.2946 4.81748 12.4504 5.13483 12.5135C5.45218 12.5766 5.78112 12.5442 6.08006 12.4204C6.379 12.2966 6.63451 12.0869 6.81428 11.8179C6.99405 11.5488 7.09 11.2325 7.09 10.909C7.09 10.4751 6.91763 10.0589 6.61082 9.75212C6.30401 9.44531 5.88789 9.27295 5.454 9.27295ZM5.454 11.455C5.34621 11.455 5.24083 11.423 5.15121 11.3631C5.06158 11.3032 4.99173 11.2181 4.95048 11.1185C4.90923 11.0189 4.89844 10.9093 4.91947 10.8036C4.9405 10.6979 4.9924 10.6008 5.06862 10.5246C5.14484 10.4484 5.24195 10.3965 5.34767 10.3754C5.45339 10.3544 5.56297 10.3652 5.66255 10.4064C5.76214 10.4477 5.84726 10.5175 5.90714 10.6072C5.96703 10.6968 5.99899 10.8022 5.99899 10.9099C5.99899 11.0545 5.94157 11.1931 5.83937 11.2953C5.73716 11.3975 5.59854 11.455 5.454 11.455Z" fill="white"/>
<path d="M20 9.90906H9V10.9091H20V9.90906Z" fill="white"/>
<path d="M5.454 20.182C5.13043 20.182 4.81412 20.278 4.54508 20.4577C4.27605 20.6375 4.06635 20.893 3.94253 21.1919C3.8187 21.4909 3.7863 21.8198 3.84943 22.1372C3.91255 22.4545 4.06837 22.746 4.29717 22.9748C4.52597 23.2036 4.81748 23.3595 5.13483 23.4226C5.45218 23.4857 5.78112 23.4533 6.08006 23.3295C6.379 23.2056 6.63451 22.996 6.81428 22.7269C6.99405 22.4579 7.09 22.1416 7.09 21.818C7.09 21.3841 6.91763 20.968 6.61082 20.6612C6.30401 20.3544 5.88789 20.182 5.454 20.182ZM5.454 22.364C5.34621 22.364 5.24083 22.332 5.15121 22.2722C5.06158 22.2123 4.99173 22.1271 4.95048 22.0276C4.90923 21.928 4.89844 21.8184 4.91947 21.7127C4.9405 21.607 4.9924 21.5098 5.06862 21.4336C5.14484 21.3574 5.24195 21.3055 5.34767 21.2845C5.45339 21.2635 5.56297 21.2742 5.66255 21.3155C5.76214 21.3567 5.84726 21.4266 5.90714 21.5162C5.96703 21.6059 5.99899 21.7112 5.99899 21.819C5.99899 21.8906 5.98489 21.9614 5.95751 22.0276C5.93012 22.0937 5.88997 22.1538 5.83937 22.2044C5.78876 22.255 5.72868 22.2951 5.66255 22.3225C5.59643 22.3499 5.52557 22.364 5.454 22.364Z" fill="white"/>
<path d="M5.454 25.636C5.13043 25.636 4.81412 25.7319 4.54508 25.9117C4.27605 26.0915 4.06635 26.347 3.94253 26.6459C3.8187 26.9448 3.7863 27.2738 3.84943 27.5912C3.91255 27.9085 4.06837 28.2 4.29717 28.4288C4.52597 28.6576 4.81748 28.8134 5.13483 28.8766C5.45218 28.9397 5.78112 28.9073 6.08006 28.7834C6.379 28.6596 6.63451 28.4499 6.81428 28.1809C6.99405 27.9119 7.09 27.5955 7.09 27.272C7.09 26.8381 6.91763 26.422 6.61082 26.1152C6.30401 25.8084 5.88789 25.636 5.454 25.636ZM5.454 27.818C5.34621 27.818 5.24083 27.786 5.15121 27.7261C5.06158 27.6662 4.99173 27.5811 4.95048 27.4815C4.90923 27.382 4.89844 27.2724 4.91947 27.1667C4.9405 27.0609 4.9924 26.9638 5.06862 26.8876C5.14484 26.8114 5.24195 26.7595 5.34767 26.7385C5.45339 26.7174 5.56297 26.7282 5.66255 26.7695C5.76214 26.8107 5.84726 26.8806 5.90714 26.9702C5.96703 27.0598 5.99899 27.1652 5.99899 27.273C5.99899 27.4175 5.94157 27.5561 5.83937 27.6584C5.73716 27.7606 5.59854 27.818 5.454 27.818Z" fill="white"/>
<path d="M20 26.9091H9V27.9091H20V26.9091Z" fill="white"/>
<path d="M20 20.9091H9V21.9091H20V20.9091Z" fill="white"/>
</svg>
