<svg xmlns="http://www.w3.org/2000/svg" width="28.5" height="19" viewBox="0 0 28.5 19">
  <g id="mail" transform="translate(0 -85.333)">
    <g id="Group_4134" data-name="Group 4134" transform="translate(0 85.333)">
      <path id="Path_2228" data-name="Path 2228" d="M27.038,85.333H1.462A1.466,1.466,0,0,0,0,86.795v16.077a1.466,1.466,0,0,0,1.462,1.462H27.038a1.466,1.466,0,0,0,1.462-1.462V86.795A1.466,1.466,0,0,0,27.038,85.333Zm-.548,1.1-11.4,8.55a1.528,1.528,0,0,1-1.682,0l-11.4-8.55ZM20.4,95.543l6.212,7.673c.006.008.014.014.02.02H1.867c.007-.007.014-.013.02-.02L8.1,95.543a.548.548,0,0,0-.852-.69l-6.151,7.6V87.114l11.656,8.742a2.616,2.616,0,0,0,3,0L27.4,87.114v15.337l-6.151-7.6a.548.548,0,0,0-.852.69Z" transform="translate(0 -85.333)" fill="#616a78"/>
    </g>
  </g>
</svg>
