<svg xmlns="http://www.w3.org/2000/svg" width="13" height="17.334" viewBox="0 0 13 17.334">
  <g id="sort" transform="translate(-14 -8)">
    <path id="Path_2244" data-name="Path 2244" d="M20.289,10.74,17.761,8.212a.722.722,0,0,0-1.021,0L14.212,10.74a.722.722,0,0,0,1.021,1.021l1.295-1.295V24.612a.722.722,0,0,0,1.444,0V10.466l1.295,1.295a.722.722,0,0,0,1.021-1.021Z" transform="translate(0 0)" fill="#fff"/>
    <path id="Path_2245" data-name="Path 2245" d="M38.289,21.573a.722.722,0,0,0-1.021,0l-1.295,1.295V8.722a.722.722,0,0,0-1.444,0V22.868l-1.295-1.295a.722.722,0,0,0-1.021,1.021l2.528,2.528a.722.722,0,0,0,1.021,0l2.528-2.528A.722.722,0,0,0,38.289,21.573Z" transform="translate(-11.5)" fill="#fff"/>
  </g>
</svg>
