<svg width="10" height="5" viewBox="0 0 10 5" fill="none" xmlns="http://www.w3.org/2000/svg">
<path d="M4.7814 4.87202C4.70243 4.87242 4.62417 4.85714 4.55114 4.82708C4.47812 4.79702 4.41178 4.75276 4.35598 4.69689L0.683148 1.02193C0.62756 0.966341 0.583465 0.90035 0.553381 0.827721C0.523297 0.755091 0.507813 0.677245 0.507813 0.598632C0.507812 0.520018 0.523297 0.442172 0.553381 0.369543C0.583465 0.296913 0.62756 0.230923 0.683148 0.175334C0.738736 0.119746 0.804729 0.0756488 0.877358 0.0455646C0.949988 0.0154805 1.02783 -2.19157e-09 1.10645 0C1.18506 2.19155e-09 1.2629 0.0154805 1.33553 0.0455646C1.40816 0.0756488 1.47415 0.119746 1.52974 0.175334L4.7814 3.42699L8.03306 0.175334C8.14533 0.0630689 8.29759 0 8.45636 0C8.61513 0 8.76739 0.0630689 8.87966 0.175334C8.99192 0.2876 9.05499 0.439864 9.05499 0.598632C9.05499 0.757399 8.99192 0.909664 8.87966 1.02193L5.2047 4.69689C5.14915 4.75251 5.08316 4.79661 5.01052 4.82667C4.93788 4.85672 4.86002 4.87214 4.7814 4.87202Z" fill="#172B4D"/>
</svg>
