<svg width="21" height="21" viewBox="0 0 21 21" fill="none" xmlns="http://www.w3.org/2000/svg">
<path d="M10.5 21C4.70083 21 0 16.2991 0 10.5C0 4.70083 4.70083 0 10.5 0C16.2991 0 21 4.70083 21 10.5C21 16.2991 16.2991 21 10.5 21ZM10.5 1.14226C5.35983 1.14226 1.14226 5.35982 1.14226 10.5C1.14226 15.6401 5.35983 19.8577 10.5 19.8577C15.6402 19.8577 19.8577 15.6401 19.8577 10.5C19.8577 5.35982 15.6402 1.14226 10.5 1.14226Z" fill="white"/>
<path d="M4.92041 9.88501H16.0794V11.1151H4.92041V9.88501Z" fill="white"/>
<path d="M9.88501 4.92041H11.1151V16.0794H9.88501V4.92041Z" fill="white"/>
</svg>
