<svg width="15" height="16" viewBox="0 0 15 16" fill="none" xmlns="http://www.w3.org/2000/svg">
<path d="M1 3.83643H13.4799" stroke="white" stroke-width="1.5" stroke-linecap="round" stroke-linejoin="round"/>
<path d="M4.46671 3.83635V2.41818C4.46671 2.04205 4.6128 1.68133 4.87285 1.41537C5.1329 1.14941 5.4856 1 5.85337 1H8.62669C8.99446 1 9.34716 1.14941 9.60721 1.41537C9.86726 1.68133 10.0134 2.04205 10.0134 2.41818V3.83635M12.0933 3.83635V13.7636C12.0933 14.1397 11.9472 14.5004 11.6872 14.7664C11.4271 15.0323 11.0744 15.1818 10.7067 15.1818H3.77338C3.40561 15.1818 3.05291 15.0323 2.79286 14.7664C2.53281 14.5004 2.38672 14.1397 2.38672 13.7636V3.83635H12.0933Z" stroke="white" stroke-width="1.5" stroke-linecap="round" stroke-linejoin="round"/>
<path d="M5.85352 7.38159V11.6361" stroke="white" stroke-width="1.5" stroke-linecap="round" stroke-linejoin="round"/>
<path d="M8.62646 7.38159V11.6361" stroke="white" stroke-width="1.5" stroke-linecap="round" stroke-linejoin="round"/>
</svg>
