<svg width="30" height="30" viewBox="0 0 30 30" fill="none" xmlns="http://www.w3.org/2000/svg">
<circle cx="15" cy="15" r="15" transform="rotate(-180 15 15)" fill="#6B7BC7"/>
<g clip-path="url(#clip0)">
<path d="M15.2329 11.5343C15.0475 11.5343 14.8622 11.6051 14.7208 11.7464L10.2728 16.1945C9.98981 16.4774 9.98981 16.9362 10.2728 17.219C10.5556 17.5019 11.0143 17.5019 11.2972 17.219L15.2329 13.2831L19.1686 17.2189C19.4516 17.5017 19.9102 17.5017 20.193 17.2189C20.4761 16.936 20.4761 16.4773 20.193 16.1943L15.7451 11.7462C15.6036 11.6049 15.4183 11.5343 15.2329 11.5343Z" fill="white"/>
</g>
<defs>
<clipPath id="clip0">
<rect width="10.3448" height="10.3448" fill="white" transform="matrix(1 0 0 -1 10.0605 19.655)"/>
</clipPath>
</defs>
</svg>
