<svg width="20" height="20" viewBox="0 0 20 20" fill="none" xmlns="http://www.w3.org/2000/svg">
<path d="M19.375 10C19.375 11.8542 18.8252 13.6668 17.795 15.2085C16.7649 16.7502 15.3007 17.9518 13.5877 18.6614C11.8746 19.3709 9.9896 19.5566 8.17103 19.1949C6.35246 18.8331 4.68199 17.9402 3.37088 16.6291C2.05976 15.318 1.16688 13.6475 0.805139 11.829C0.443402 10.0104 0.62906 8.1254 1.33863 6.41234C2.0482 4.69928 3.24982 3.23511 4.79153 2.20497C6.33324 1.17483 8.1458 0.624997 10 0.624997C12.4864 0.624997 14.871 1.61272 16.6291 3.37087C18.3873 5.12903 19.375 7.51359 19.375 10ZM18.125 10C18.125 8.39302 17.6485 6.82214 16.7557 5.48599C15.8629 4.14984 14.594 3.10844 13.1093 2.49348C11.6247 1.87851 9.99099 1.71761 8.41489 2.03112C6.8388 2.34462 5.39106 3.11845 4.25476 4.25475C3.11846 5.39106 2.34463 6.83879 2.03112 8.41489C1.71762 9.99098 1.87852 11.6247 2.49348 13.1093C3.10844 14.5939 4.14984 15.8629 5.48599 16.7557C6.82214 17.6485 8.39303 18.125 10 18.125C12.1549 18.125 14.2215 17.269 15.7452 15.7452C17.269 14.2215 18.125 12.1549 18.125 10Z" fill="white"/>
<path d="M13.4936 7.58137L9.9999 11.0689L6.50615 7.58137C6.38904 7.46497 6.23064 7.39963 6.06552 7.39963C5.9004 7.39963 5.742 7.46497 5.62489 7.58137C5.50849 7.69847 5.44315 7.85688 5.44315 8.022C5.44315 8.18711 5.50849 8.34552 5.62489 8.46262L9.5999 12.4376C9.70638 12.543 9.85011 12.6021 9.9999 12.6021C10.1497 12.6021 10.2934 12.543 10.3999 12.4376L14.3749 8.46262C14.4913 8.34552 14.5566 8.18711 14.5566 8.022C14.5566 7.85688 14.4913 7.69847 14.3749 7.58137C14.2578 7.46497 14.0994 7.39963 13.9343 7.39963C13.7692 7.39963 13.6107 7.46497 13.4936 7.58137Z" fill="white"/>
</svg>
