<svg width="46" height="46" viewBox="0 0 46 46" fill="none" xmlns="http://www.w3.org/2000/svg">
<path d="M39.9037 22.4201H37.5543V9.03335C37.5544 8.95698 37.5394 8.88134 37.5102 8.81076C37.4811 8.74018 37.4383 8.67605 37.3843 8.62205C37.3303 8.56805 37.2661 8.52523 37.1956 8.49606C37.125 8.46689 37.0493 8.45194 36.973 8.45206H23.5862V6.09545C23.5803 5.94512 23.5165 5.80292 23.408 5.69865C23.2996 5.59437 23.1549 5.53613 23.0045 5.53613C22.8541 5.53613 22.7094 5.59437 22.601 5.69865C22.4925 5.80292 22.4287 5.94512 22.4228 6.09545V8.44936H9.03604C8.95967 8.44924 8.88403 8.4642 8.81345 8.49337C8.74287 8.52254 8.67875 8.56535 8.62474 8.61935C8.57074 8.67335 8.52793 8.73748 8.49876 8.80806C8.46959 8.87864 8.45463 8.95428 8.45475 9.03065V22.4174H6.09545C5.94512 22.4233 5.80292 22.4872 5.69865 22.5956C5.59437 22.7041 5.53613 22.8487 5.53613 22.9991C5.53613 23.1496 5.59437 23.2942 5.69865 23.4026C5.80292 23.5111 5.94512 23.5749 6.09545 23.5809H8.44936V36.9676C8.44924 37.0439 8.4642 37.1196 8.49337 37.1902C8.52254 37.2607 8.56535 37.3249 8.61935 37.3789C8.67335 37.4329 8.73748 37.4757 8.80806 37.5049C8.87864 37.534 8.95428 37.549 9.03065 37.5489H22.4174V39.9028C22.4233 40.0531 22.4872 40.1953 22.5956 40.2996C22.7041 40.4039 22.8487 40.4621 22.9991 40.4621C23.1496 40.4621 23.2942 40.4039 23.4026 40.2996C23.5111 40.1953 23.5749 40.0531 23.5809 39.9028V37.5543H36.9676C37.0439 37.5544 37.1196 37.5394 37.1902 37.5102C37.2607 37.4811 37.3249 37.4383 37.3789 37.3843C37.4329 37.3303 37.4757 37.2661 37.5049 37.1956C37.534 37.125 37.549 37.0493 37.5489 36.973V23.5862H39.9028C40.0531 23.5803 40.1953 23.5165 40.2996 23.408C40.4039 23.2996 40.4621 23.1549 40.4621 23.0045C40.4621 22.8541 40.4039 22.7094 40.2996 22.601C40.1953 22.4925 40.0531 22.4287 39.9028 22.4228L39.9037 22.4201ZM36.3863 36.3863H23.5791V34.3073C23.5731 34.157 23.5093 34.0148 23.4008 33.9105C23.2924 33.8062 23.1478 33.748 22.9973 33.748C22.8469 33.748 22.7023 33.8062 22.5938 33.9105C22.4854 34.0148 22.4215 34.157 22.4156 34.3073V36.3863H9.61284V23.5791H11.6918C11.8422 23.5731 11.9844 23.5093 12.0886 23.4008C12.1929 23.2924 12.2511 23.1478 12.2511 22.9973C12.2511 22.8469 12.1929 22.7023 12.0886 22.5938C11.9844 22.4854 11.8422 22.4215 11.6918 22.4156H9.61284V9.61284H22.4201V11.6918C22.426 11.8422 22.4899 11.9844 22.5983 12.0886C22.7068 12.1929 22.8514 12.2511 23.0018 12.2511C23.1523 12.2511 23.2969 12.1929 23.4053 12.0886C23.5138 11.9844 23.5776 11.8422 23.5835 11.6918V9.61284H36.3863V22.4201H34.3073C34.157 22.426 34.0148 22.4899 33.9105 22.5983C33.8062 22.7068 33.748 22.8514 33.748 23.0018C33.748 23.1523 33.8062 23.2969 33.9105 23.4053C34.0148 23.5138 34.157 23.5776 34.3073 23.5835H36.3863V36.3863Z" fill="#6B7BC7"/>
<path d="M25.6761 22.778C26.5864 22.1989 27.2842 21.34 27.6648 20.3304C28.0453 19.3208 28.088 18.215 27.7864 17.1791C27.4848 16.1432 26.8552 15.2331 25.9922 14.5855C25.1293 13.938 24.0795 13.5879 23.0005 13.5879C21.9216 13.5879 20.8718 13.938 20.0088 14.5855C19.1459 15.2331 18.5163 16.1432 18.2147 17.1791C17.9131 18.215 17.9558 19.3208 18.3363 20.3304C18.7168 21.34 19.4147 22.1989 20.325 22.778C19.13 23.0502 18.0626 23.7196 17.2973 24.6769C16.5319 25.6341 16.1139 26.8226 16.1113 28.0482V31.8163C16.1113 31.9712 16.1729 32.1197 16.2824 32.2292C16.3919 32.3387 16.5404 32.4003 16.6953 32.4003C16.8502 32.4003 16.9987 32.3387 17.1083 32.2292C17.2178 32.1197 17.2793 31.9712 17.2793 31.8163V28.0482C17.2805 26.9212 17.7287 25.8407 18.5255 25.0437C19.3223 24.2467 20.4028 23.7983 21.5298 23.7968H24.4803C25.6073 23.7983 26.6877 24.2467 27.4846 25.0437C28.2814 25.8407 28.7296 26.9212 28.7308 28.0482V31.8163C28.7367 31.9666 28.8006 32.1088 28.909 32.2131C29.0175 32.3174 29.1621 32.3756 29.3125 32.3756C29.463 32.3756 29.6076 32.3174 29.716 32.2131C29.8245 32.1088 29.8884 31.9666 29.8943 31.8163V28.0482C29.8915 26.822 29.4728 25.633 28.7065 24.6757C27.9403 23.7184 26.8719 23.0493 25.6761 22.778ZM19.1795 18.5868C19.1795 17.8311 19.4036 17.0923 19.8235 16.4639C20.2433 15.8356 20.8401 15.3458 21.5383 15.0566C22.2365 14.7674 23.0048 14.6917 23.746 14.8392C24.4872 14.9866 25.1681 15.3505 25.7024 15.8849C26.2368 16.4193 26.6007 17.1001 26.7482 17.8413C26.8956 18.5826 26.82 19.3508 26.5307 20.0491C26.2415 20.7473 25.7518 21.344 25.1234 21.7639C24.495 22.1838 23.7563 22.4079 23.0005 22.4079C21.9874 22.4069 21.0161 22.004 20.2997 21.2876C19.5833 20.5713 19.1804 19.5999 19.1795 18.5868Z" fill="#6B7BC7"/>
<path d="M16.4826 12.3987C16.4826 12.2445 16.4213 12.0966 16.3123 11.9876C16.2033 11.8786 16.0554 11.8174 15.9013 11.8174H12.1072C11.9568 11.8233 11.8146 11.8872 11.7104 11.9956C11.6061 12.1041 11.5479 12.2487 11.5479 12.3991C11.5479 12.5496 11.6061 12.6942 11.7104 12.8026C11.8146 12.9111 11.9568 12.9749 12.1072 12.9809H15.9022C15.9785 12.9807 16.0541 12.9656 16.1246 12.9363C16.195 12.9069 16.2591 12.864 16.3129 12.81C16.3668 12.7559 16.4096 12.6918 16.4387 12.6212C16.4678 12.5506 16.4827 12.475 16.4826 12.3987Z" fill="#6B7BC7"/>
<path d="M13.6246 14.4648H12.1072C11.9568 14.4707 11.8146 14.5346 11.7104 14.643C11.6061 14.7515 11.5479 14.8961 11.5479 15.0465C11.5479 15.197 11.6061 15.3416 11.7104 15.45C11.8146 15.5585 11.9568 15.6224 12.1072 15.6283H13.6246C13.703 15.6314 13.7811 15.6186 13.8544 15.5907C13.9276 15.5629 13.9945 15.5205 14.051 15.4662C14.1075 15.4119 14.1525 15.3467 14.1832 15.2746C14.2139 15.2025 14.2297 15.1249 14.2297 15.0465C14.2297 14.9682 14.2139 14.8906 14.1832 14.8185C14.1525 14.7464 14.1075 14.6812 14.051 14.6269C13.9945 14.5725 13.9276 14.5302 13.8544 14.5023C13.7811 14.4745 13.703 14.4617 13.6246 14.4648Z" fill="#6B7BC7"/>
</svg>
