<svg width="29" height="29" viewBox="0 0 29 29" fill="none" xmlns="http://www.w3.org/2000/svg">
<path d="M25.1567 14.1345H23.6756V5.695C23.6756 5.64685 23.6662 5.59917 23.6478 5.55467C23.6294 5.51018 23.6024 5.46975 23.5684 5.4357C23.5344 5.40166 23.4939 5.37467 23.4494 5.35628C23.4049 5.33789 23.3573 5.32846 23.3091 5.32853H14.8696V3.84285C14.8659 3.74808 14.8257 3.65842 14.7573 3.59269C14.6889 3.52695 14.5977 3.49023 14.5029 3.49023C14.4081 3.49023 14.3169 3.52695 14.2485 3.59269C14.1801 3.65842 14.1399 3.74808 14.1362 3.84285V5.32684H5.6967C5.64855 5.32676 5.60087 5.33619 5.55637 5.35458C5.51187 5.37297 5.47145 5.39996 5.4374 5.434C5.40336 5.46805 5.37637 5.50848 5.35798 5.55297C5.33959 5.59747 5.33016 5.64515 5.33023 5.6933V14.1328H3.84285C3.74808 14.1365 3.65842 14.1767 3.59269 14.2451C3.52695 14.3135 3.49023 14.4047 3.49023 14.4995C3.49023 14.5943 3.52695 14.6855 3.59269 14.7539C3.65842 14.8223 3.74808 14.8625 3.84285 14.8663H5.32684V23.3057C5.32676 23.3539 5.33619 23.4015 5.35458 23.446C5.37297 23.4905 5.39996 23.531 5.434 23.565C5.46805 23.599 5.50848 23.626 5.55297 23.6444C5.59747 23.6628 5.64515 23.6722 5.6933 23.6722H14.1328V25.1562C14.1365 25.2509 14.1767 25.3406 14.2451 25.4063C14.3135 25.4721 14.4047 25.5088 14.4995 25.5088C14.5943 25.5088 14.6855 25.4721 14.7539 25.4063C14.8223 25.3406 14.8625 25.2509 14.8663 25.1562V23.6756H23.3057C23.3539 23.6756 23.4015 23.6662 23.446 23.6478C23.4905 23.6294 23.531 23.6024 23.565 23.5684C23.599 23.5344 23.626 23.4939 23.6444 23.4494C23.6628 23.4049 23.6722 23.3573 23.6722 23.3091V14.8696H25.1562C25.2509 14.8659 25.3406 14.8257 25.4063 14.7573C25.4721 14.6889 25.5088 14.5977 25.5088 14.5029C25.5088 14.4081 25.4721 14.3169 25.4063 14.2485C25.3406 14.1801 25.2509 14.1399 25.1562 14.1362L25.1567 14.1345ZM22.9392 22.9392H14.8651V21.6286C14.8614 21.5338 14.8211 21.4442 14.7528 21.3784C14.6844 21.3127 14.5932 21.276 14.4984 21.276C14.4035 21.276 14.3124 21.3127 14.244 21.3784C14.1756 21.4442 14.1353 21.5338 14.1316 21.6286V22.9392H6.06033V14.8651H7.371C7.46577 14.8614 7.55542 14.8211 7.62116 14.7528C7.68689 14.6844 7.72361 14.5932 7.72361 14.4984C7.72361 14.4035 7.68689 14.3124 7.62116 14.244C7.55542 14.1756 7.46577 14.1353 7.371 14.1316H6.06033V6.06033H14.1345V7.371C14.1382 7.46577 14.1784 7.55542 14.2468 7.62116C14.3152 7.68689 14.4064 7.72361 14.5012 7.72361C14.596 7.72361 14.6872 7.68689 14.7556 7.62116C14.824 7.55542 14.8642 7.46577 14.868 7.371V6.06033H22.9392V14.1345H21.6286C21.5338 14.1382 21.4442 14.1784 21.3784 14.2468C21.3127 14.3152 21.276 14.4064 21.276 14.5012C21.276 14.596 21.3127 14.6872 21.3784 14.7556C21.4442 14.824 21.5338 14.8642 21.6286 14.868H22.9392V22.9392Z" fill="black"/>
<path d="M16.1872 14.3602C16.7611 13.9951 17.201 13.4536 17.4409 12.8171C17.6808 12.1806 17.7077 11.4835 17.5176 10.8304C17.3275 10.1774 16.9306 9.6036 16.3865 9.19535C15.8425 8.78711 15.1806 8.56641 14.5004 8.56641C13.8202 8.56641 13.1584 8.78711 12.6144 9.19535C12.0703 9.6036 11.6734 10.1774 11.4833 10.8304C11.2931 11.4835 11.32 12.1806 11.5599 12.8171C11.7998 13.4536 12.2398 13.9951 12.8137 14.3602C12.0603 14.5318 11.3874 14.9538 10.9049 15.5573C10.4224 16.1608 10.1588 16.9101 10.1572 17.6827V20.0582C10.1572 20.1559 10.196 20.2495 10.2651 20.3186C10.3341 20.3876 10.4277 20.4264 10.5254 20.4264C10.623 20.4264 10.7167 20.3876 10.7857 20.3186C10.8548 20.2495 10.8936 20.1559 10.8936 20.0582V17.6827C10.8943 16.9722 11.1768 16.291 11.6792 15.7885C12.1816 15.2861 12.8627 15.0034 13.5732 15.0025H15.4333C16.1438 15.0034 16.825 15.2861 17.3273 15.7885C17.8297 16.291 18.1122 16.9722 18.113 17.6827V20.0582C18.1167 20.153 18.157 20.2426 18.2253 20.3084C18.2937 20.3741 18.3849 20.4108 18.4797 20.4108C18.5746 20.4108 18.6657 20.3741 18.7341 20.3084C18.8025 20.2426 18.8427 20.153 18.8465 20.0582V17.6827C18.8447 16.9097 18.5807 16.1601 18.0977 15.5565C17.6146 14.953 16.9411 14.5312 16.1872 14.3602ZM12.0915 11.7179C12.0915 11.2415 12.2328 10.7757 12.4975 10.3796C12.7622 9.98342 13.1384 9.67466 13.5786 9.49234C14.0187 9.31001 14.5031 9.26231 14.9704 9.35525C15.4377 9.4482 15.8669 9.67763 16.2038 10.0145C16.5407 10.3514 16.7701 10.7806 16.8631 11.2479C16.956 11.7152 16.9083 12.1996 16.726 12.6397C16.5437 13.0799 16.2349 13.4561 15.8388 13.7208C15.4426 13.9855 14.9769 14.1268 14.5004 14.1268C13.8617 14.1262 13.2494 13.8722 12.7977 13.4206C12.3461 12.969 12.0921 12.3566 12.0915 11.7179Z" fill="black"/>
<path d="M10.3913 7.81666C10.3913 7.71947 10.3527 7.62626 10.284 7.55753C10.2152 7.4888 10.122 7.4502 10.0248 7.4502H7.63289C7.53812 7.45392 7.44846 7.49419 7.38273 7.56256C7.31699 7.63093 7.28027 7.7221 7.28027 7.81694C7.28027 7.91179 7.31699 8.00295 7.38273 8.07132C7.44846 8.13969 7.53812 8.17996 7.63289 8.18369H10.0254C10.0735 8.18361 10.1212 8.17406 10.1656 8.15558C10.21 8.13709 10.2504 8.11004 10.2844 8.07595C10.3183 8.04187 10.3453 8.00143 10.3636 7.95694C10.382 7.91245 10.3914 7.86478 10.3913 7.81666Z" fill="black"/>
<path d="M8.58955 9.11894H7.63289C7.53811 9.12266 7.44846 9.16293 7.38273 9.2313C7.31699 9.29967 7.28027 9.39084 7.28027 9.48568C7.28027 9.58053 7.31699 9.6717 7.38273 9.74007C7.44846 9.80844 7.53811 9.84871 7.63289 9.85243H8.58955C8.63892 9.85437 8.68818 9.84632 8.73437 9.82877C8.78056 9.81121 8.82273 9.78451 8.85835 9.75026C8.89397 9.71601 8.92231 9.67493 8.94166 9.62946C8.96102 9.584 8.971 9.5351 8.971 9.48568C8.971 9.43627 8.96102 9.38737 8.94166 9.3419C8.92231 9.29644 8.89397 9.25535 8.85835 9.22111C8.82273 9.18686 8.78056 9.16016 8.73437 9.1426C8.68818 9.12504 8.63892 9.11699 8.58955 9.11894Z" fill="black"/>
</svg>
