<svg width="20" height="28" viewBox="0 0 20 28" fill="none" xmlns="http://www.w3.org/2000/svg">
<path d="M16.3633 18.1818C16.6043 18.1815 16.8354 18.0856 17.0058 17.9152C17.1763 17.7448 17.2721 17.5137 17.2724 17.2727V11.8183C17.2721 11.5772 17.1763 11.3462 17.0058 11.1757C16.8354 11.0053 16.6043 10.9095 16.3633 10.9092H0.909073C0.668055 10.9095 0.436986 11.0053 0.26656 11.1757C0.0961346 11.3462 0.000270689 11.5772 0 11.8183V17.2727C0.000270689 17.5137 0.0961346 17.7448 0.26656 17.9152C0.436986 18.0856 0.668055 18.1815 0.909073 18.1818H16.3633ZM10.6493 13.5177C10.8036 13.2299 11.0433 12.9971 11.3353 12.8512C11.6026 12.7242 11.8965 12.6631 12.1923 12.673C12.6366 12.673 12.9836 12.7662 13.2335 12.9525C13.4847 13.1412 13.6567 13.4167 13.7156 13.7253L12.9979 13.8596C12.9535 13.6925 12.8532 13.5456 12.7138 13.4433C12.5611 13.3375 12.3783 13.2839 12.1926 13.2907C12.0529 13.2841 11.9134 13.3075 11.7835 13.3593C11.6536 13.4111 11.5362 13.4901 11.4394 13.5911C11.2531 13.7913 11.1599 14.0883 11.1599 14.4822C11.1599 14.9069 11.2543 15.2255 11.4431 15.438C11.5356 15.5425 11.6502 15.6252 11.7785 15.6802C11.9068 15.7353 12.0457 15.7612 12.1852 15.7561C12.3412 15.7552 12.4957 15.725 12.6405 15.667C12.7808 15.6143 12.9128 15.5416 13.0324 15.4511V14.9966H12.2043V14.3935H13.7619V15.8193C13.57 15.9901 13.3465 16.1216 13.1039 16.2062C12.826 16.3159 12.53 16.3727 12.2311 16.3735C11.8899 16.3816 11.5524 16.3004 11.2522 16.1379C10.9775 15.9848 10.758 15.749 10.6248 15.4641C10.4835 15.1663 10.4117 14.8403 10.4148 14.5107C10.4085 14.1653 10.4891 13.8238 10.6493 13.5177ZM6.64248 13.6275C6.72366 13.4455 6.83651 13.2794 6.97577 13.1369C7.10641 12.9991 7.26383 12.8894 7.43838 12.8146C7.6834 12.716 7.94578 12.6679 8.20984 12.673C8.73718 12.673 9.15914 12.8366 9.47572 13.1637C9.79231 13.4908 9.9506 13.9457 9.9506 14.5284C9.9506 15.1062 9.79356 15.5583 9.47947 15.8847C9.16539 16.211 8.74547 16.3742 8.21972 16.3742C7.68754 16.3742 7.26437 16.2118 6.9502 15.8872C6.63604 15.5625 6.47896 15.1152 6.47896 14.5455C6.46957 14.2315 6.52528 13.9189 6.6426 13.6275H6.64248ZM3.56584 12.7632H4.28844V15.71H6.08534V16.313H3.56584V12.7632Z" fill="#595B64"/>
<path d="M8.21736 15.7566C8.35122 15.7603 8.48423 15.7343 8.60685 15.6805C8.72947 15.6267 8.83865 15.5464 8.92655 15.4454C9.11125 15.2379 9.20359 14.9266 9.20359 14.5115C9.20359 14.1014 9.11367 13.7954 8.93383 13.5936C8.84035 13.4975 8.72851 13.4212 8.60497 13.3693C8.48143 13.3173 8.34869 13.2907 8.21466 13.291C8.08063 13.2914 7.94803 13.3186 7.82475 13.3712C7.70147 13.4238 7.59003 13.5007 7.49704 13.5972C7.31469 13.8018 7.22356 14.1098 7.22363 14.5213C7.22363 14.9266 7.31723 15.2338 7.50442 15.4429C7.59284 15.5444 7.70259 15.6252 7.82583 15.6794C7.94907 15.7337 8.08276 15.76 8.21736 15.7566Z" fill="#595B64"/>
<path d="M18.1825 0H2.7283C2.24627 0.000541378 1.78413 0.192269 1.44328 0.533121C1.10243 0.873972 0.910698 1.33611 0.910156 1.81815V9.9998H1.81923V1.81815C1.8195 1.57713 1.91536 1.34606 2.08579 1.17563C2.25621 1.00521 2.48728 0.909344 2.7283 0.909073H18.1825C18.4236 0.909344 18.6546 1.00521 18.8251 1.17563C18.9955 1.34606 19.0913 1.57713 19.0916 1.81815V20.7983C19.0914 20.8352 19.0889 20.8721 19.0842 20.9087H15.0008C14.6393 20.9091 14.2927 21.0529 14.037 21.3085C13.7814 21.5642 13.6376 21.9108 13.6372 22.2723V26.3557C13.6006 26.3604 13.5637 26.3629 13.5268 26.3631H2.7283C2.48728 26.3629 2.25621 26.267 2.08579 26.0966C1.91536 25.9261 1.8195 25.6951 1.81923 25.454V19.0905H0.910156V25.454C0.910698 25.9361 1.10243 26.3982 1.44328 26.7391C1.78413 27.0799 2.24627 27.2717 2.7283 27.2722H13.5268C13.7657 27.2728 14.0023 27.2261 14.223 27.1347C14.4437 27.0433 14.644 26.909 14.8125 26.7397L19.4682 22.084C19.6375 21.9155 19.7718 21.7152 19.8632 21.4945C19.9546 21.2738 20.0013 21.0372 20.0007 20.7983V1.81815C20.0001 1.33611 19.8084 0.873972 19.4676 0.533121C19.1267 0.192269 18.6646 0.000541378 18.1825 0Z" fill="#595B64"/>
</svg>
