<svg width="28" height="39" viewBox="0 0 28 39" fill="none" xmlns="http://www.w3.org/2000/svg">
<path d="M22.8 25.8555C23.1358 25.8551 23.4578 25.7215 23.6952 25.4841C23.9327 25.2466 24.0663 24.9247 24.0667 24.5888V16.9888C24.0663 16.653 23.9327 16.331 23.6952 16.0936C23.4578 15.8561 23.1358 15.7225 22.8 15.7222H1.26667C0.930841 15.7225 0.608879 15.8561 0.371414 16.0936C0.13395 16.331 0.000377167 16.653 0 16.9888V24.5888C0.000377167 24.9247 0.13395 25.2466 0.371414 25.4841C0.608879 25.7215 0.930841 25.8551 1.26667 25.8555H22.8ZM14.8384 19.3567C15.0533 18.9558 15.3872 18.6313 15.7942 18.4281C16.1667 18.2511 16.5761 18.166 16.9882 18.1798C17.6073 18.1798 18.0909 18.3097 18.439 18.5693C18.7891 18.8321 19.0286 19.216 19.1108 19.646L18.1108 19.8331C18.0488 19.6003 17.9092 19.3957 17.715 19.2532C17.5022 19.1057 17.2474 19.0311 16.9887 19.0405C16.794 19.0313 16.5996 19.0638 16.4186 19.136C16.2376 19.2082 16.0741 19.3183 15.9393 19.459C15.6796 19.738 15.5498 20.1519 15.5498 20.7006C15.5498 21.2925 15.6813 21.7364 15.9443 22.0324C16.0733 22.178 16.2329 22.2933 16.4117 22.37C16.5904 22.4466 16.784 22.4827 16.9784 22.4757C17.1958 22.4745 17.411 22.4324 17.6128 22.3516C17.8083 22.2781 17.9922 22.1767 18.1588 22.0507V21.4174H17.005V20.5771H19.1753V22.5638C18.908 22.8018 18.5965 22.985 18.2585 23.1029C17.8712 23.2557 17.4587 23.3348 17.0424 23.3359C16.5668 23.3473 16.0966 23.2341 15.6783 23.0077C15.2956 22.7943 14.9897 22.4658 14.8042 22.0688C14.6073 21.6539 14.5073 21.1996 14.5116 20.7404C14.5027 20.2591 14.6151 19.7832 14.8384 19.3567ZM9.25537 19.5098C9.36849 19.2562 9.52572 19.0247 9.71976 18.8261C9.9018 18.6341 10.1211 18.4813 10.3643 18.3771C10.7057 18.2398 11.0713 18.1727 11.4393 18.1798C12.174 18.1798 12.762 18.4077 13.2031 18.8635C13.6442 19.3193 13.8648 19.9532 13.8648 20.7651C13.8648 21.5702 13.646 22.2001 13.2083 22.6548C12.7707 23.1095 12.1856 23.3369 11.453 23.3369C10.7115 23.3369 10.1219 23.1107 9.68414 22.6583C9.2464 22.2059 9.02753 21.5827 9.02753 20.7888C9.01444 20.3513 9.09207 19.9158 9.25553 19.5098H9.25537ZM4.9685 18.3055H5.97534V22.4114H8.47906V23.2517H4.9685V18.3055Z" fill="#6B7BC7"/>
<path d="M11.4491 22.476C11.6356 22.4811 11.8209 22.4449 11.9918 22.3699C12.1626 22.2949 12.3148 22.1831 12.4372 22.0423C12.6946 21.7532 12.8233 21.3195 12.8233 20.7411C12.8233 20.1696 12.698 19.7433 12.4474 19.4621C12.3171 19.3283 12.1613 19.222 11.9892 19.1496C11.817 19.0771 11.6321 19.0401 11.4453 19.0405C11.2586 19.041 11.0738 19.079 10.902 19.1523C10.7303 19.2256 10.575 19.3327 10.4454 19.4672C10.1913 19.7522 10.0643 20.1814 10.0645 20.7547C10.0645 21.3195 10.1949 21.7475 10.4557 22.0388C10.5789 22.1803 10.7318 22.2929 10.9035 22.3684C11.0752 22.444 11.2615 22.4807 11.4491 22.476Z" fill="#6B7BC7"/>
<path d="M25.3342 0.522461H3.80091C3.12926 0.523215 2.48534 0.790361 2.01041 1.26529C1.53548 1.74022 1.26833 2.38414 1.26758 3.05579V14.4558H2.53424V3.05579C2.53462 2.71997 2.66819 2.39801 2.90566 2.16054C3.14312 1.92308 3.46509 1.7895 3.80091 1.78913H25.3342C25.6701 1.7895 25.992 1.92308 26.2295 2.16054C26.467 2.39801 26.6005 2.71997 26.6009 3.05579V29.502C26.6006 29.5535 26.5971 29.6048 26.5906 29.6558H20.9009C20.3972 29.6564 19.9142 29.8567 19.5581 30.2129C19.2019 30.5691 19.0015 31.0521 19.0009 31.5558V37.2455C18.9499 37.252 18.8986 37.2554 18.8472 37.2558H3.80091C3.46509 37.2554 3.14312 37.1218 2.90566 36.8844C2.66819 36.6469 2.53462 36.3249 2.53424 35.9891V27.1225H1.26758V35.9891C1.26833 36.6608 1.53548 37.3047 2.01041 37.7796C2.48534 38.2545 3.12926 38.5217 3.80091 38.5224H18.8472C19.18 38.5233 19.5097 38.4582 19.8172 38.3309C20.1246 38.2035 20.4038 38.0164 20.6385 37.7805L27.1256 31.2934C27.3616 31.0587 27.5486 30.7795 27.676 30.472C27.8033 30.1645 27.8685 29.8349 27.8676 29.502V3.05579C27.8668 2.38414 27.5997 1.74022 27.1247 1.26529C26.6498 0.790361 26.0059 0.523215 25.3342 0.522461Z" fill="#6B7BC7"/>
</svg>
