<svg width="20" height="22" viewBox="0 0 20 22" fill="none" xmlns="http://www.w3.org/2000/svg">
<path d="M16.6602 11.2949V9.23828C16.6602 6.23812 14.666 3.69527 11.9336 2.86473V1.93359C11.9336 0.86741 11.0662 0 10.0001 0C8.93387 0 8.06646 0.86741 8.06646 1.93359V2.86473C5.33407 3.69527 3.33989 6.23807 3.33989 9.23828V11.2949C3.33989 13.9302 2.33537 16.4291 0.51139 18.3312C0.33264 18.5176 0.28241 18.7927 0.38373 19.0302C0.48505 19.2677 0.718371 19.4219 0.976613 19.4219H6.84223C7.14164 20.8911 8.44377 22 10.0001 22C11.5564 22 12.8584 20.8911 13.1579 19.4219H19.0235C19.2817 19.4219 19.515 19.2677 19.6163 19.0302C19.7176 18.7927 19.6674 18.5176 19.4887 18.3312C17.6647 16.4291 16.6602 13.9302 16.6602 11.2949ZM9.35552 1.93359C9.35552 1.5782 9.64466 1.28906 10.0001 1.28906C10.3554 1.28906 10.6446 1.5782 10.6446 1.93359V2.60941C10.4324 2.58895 10.2175 2.57812 10.0001 2.57812C9.78263 2.57812 9.56766 2.58895 9.35552 2.60941V1.93359ZM10.0001 20.7109C9.1598 20.7109 8.44338 20.1721 8.17732 19.4219H11.8228C11.5567 20.1721 10.8403 20.7109 10.0001 20.7109ZM2.36579 18.1328C3.83365 16.1652 4.62896 13.784 4.62896 11.2949V9.23828C4.62896 6.27666 7.03843 3.86719 10.0001 3.86719C12.9617 3.86719 15.3711 6.27666 15.3711 9.23828V11.2949C15.3711 13.784 16.1665 16.1652 17.6344 18.1328H2.36579Z" fill="#363740"/>
<path d="M18.3792 9.23828C18.3792 9.59424 18.6678 9.88281 19.0238 9.88281C19.3797 9.88281 19.6683 9.59424 19.6683 9.23828C19.6683 6.65586 18.6627 4.228 16.8366 2.40196C16.5849 2.15029 16.1768 2.15024 15.9251 2.40196C15.6734 2.65367 15.6734 3.06174 15.9251 3.31345C17.5077 4.89603 18.3792 7.00017 18.3792 9.23828Z" fill="#363740"/>
<path d="M0.976562 9.88281C1.33252 9.88281 1.62109 9.59423 1.62109 9.23828C1.62109 7.00021 2.49267 4.89607 4.07521 3.31349C4.32692 3.06178 4.32692 2.65371 4.07521 2.40199C3.82354 2.15028 3.41543 2.15028 3.16371 2.40199C1.33767 4.22804 0.332031 6.65586 0.332031 9.23828C0.332031 9.59423 0.620609 9.88281 0.976562 9.88281Z" fill="#363740"/>
</svg>
