<svg width="29" height="29" viewBox="0 0 29 29" fill="none" xmlns="http://www.w3.org/2000/svg">
<circle cx="14.5" cy="14.5" r="14.5" transform="rotate(-180 14.5 14.5)" fill="#F17F21"/>
<g clip-path="url(#clip0)">
<path d="M11.233 15.8102L14.3688 18.9458C14.4411 19.0181 14.5582 19.0181 14.6304 18.9458L17.7661 15.8102C17.8384 15.738 17.8384 15.6208 17.7661 15.5486L16.9307 14.7131C16.8961 14.6784 16.8491 14.6589 16.7999 14.6589C16.7509 14.6589 16.7038 14.6784 16.6691 14.7131L15.3246 16.0575V10.185C15.3246 10.0829 15.2417 10 15.1395 10H13.8596C13.7575 10 13.6746 10.0829 13.6746 10.185V16.0574L12.3302 14.713C12.2608 14.6436 12.138 14.6436 12.0686 14.713L11.2331 15.5485C11.1984 15.5832 11.1789 15.6303 11.1789 15.6793C11.1788 15.7283 11.1983 15.7755 11.233 15.8102Z" fill="white"/>
</g>
<defs>
<clipPath id="clip0">
<rect width="9" height="9" fill="white" transform="translate(19 19) rotate(-180)"/>
</clipPath>
</defs>
</svg>
