<svg width="8" height="4" viewBox="0 0 8 4" fill="none" xmlns="http://www.w3.org/2000/svg">
<path d="M7.90834 1.7788C7.90825 1.7787 7.90817 1.77859 7.90806 1.7785L6.27519 0.153499C6.15286 0.0317646 5.955 0.0322176 5.83323 0.154561C5.71148 0.276889 5.71195 0.474749 5.83428 0.596499L6.93059 1.6875H0.3125C0.139906 1.6875 0 1.82741 0 2C0 2.17259 0.139906 2.3125 0.3125 2.3125H6.93058L5.8343 3.4035C5.71197 3.52525 5.7115 3.72311 5.83325 3.84544C5.95502 3.9678 6.15289 3.96822 6.2752 3.8465L7.90808 2.2215C7.90817 2.2214 7.90825 2.2213 7.90836 2.2212C8.03075 2.09905 8.03036 1.90055 7.90834 1.7788Z" fill="#252733"/>
</svg>
