<svg width="22" height="22" viewBox="0 0 22 22" fill="none" xmlns="http://www.w3.org/2000/svg">
<path d="M19.5333 3.73336H10.4324L8.804 2.01243C8.10951 1.25643 7.31587 0.888916 6.37778 0.888916H2.46667C1.10653 0.888916 0 1.99545 0 3.35558V18.6445C0 20.0046 1.10653 21.1111 2.46667 21.1111H19.5333C20.8935 21.1111 22 20.0046 22 18.6445V6.20003C22 4.83989 20.8935 3.73336 19.5333 3.73336ZM21.3333 18.6445C21.3333 19.637 20.5259 20.4445 19.5333 20.4445H2.46667C1.47413 20.4445 0.666667 19.637 0.666667 18.6445V8.33336C0.666667 7.34083 1.47413 6.53336 2.46667 6.53336H19.5333C20.5259 6.53336 21.3333 7.34083 21.3333 8.33336V18.6445ZM19.5333 5.86669H2.46667C1.75716 5.86669 1.11711 6.16821 0.666667 6.64936V3.35558C0.666667 2.36305 1.47413 1.55558 2.46667 1.55558H6.37778C7.12978 1.55558 7.74524 1.8446 8.31462 2.46514C8.31578 2.46638 8.31693 2.46767 8.31813 2.46887L10.0468 4.29576C10.1097 4.36229 10.1973 4.40003 10.2889 4.40003H19.5333C20.5259 4.40003 21.3333 5.20749 21.3333 6.20003V6.64936C20.8829 6.16821 20.2428 5.86669 19.5333 5.86669Z" fill="#5B626C"/>
<path d="M19.1782 8H14.556C14.3719 8 14.2227 8.1492 14.2227 8.33333C14.2227 8.51747 14.3719 8.66667 14.556 8.66667H19.1782C19.3623 8.66667 19.5115 8.51747 19.5115 8.33333C19.5115 8.1492 19.3623 8 19.1782 8Z" fill="#5B626C"/>
<path d="M19.1782 9.77783H14.556C14.3719 9.77783 14.2227 9.92703 14.2227 10.1112C14.2227 10.2953 14.3719 10.4445 14.556 10.4445H19.1782C19.3623 10.4445 19.5115 10.2953 19.5115 10.1112C19.5115 9.92703 19.3623 9.77783 19.1782 9.77783Z" fill="#5B626C"/>
</svg>
