<svg width="29" height="29" viewBox="0 0 29 29" fill="none" xmlns="http://www.w3.org/2000/svg">
<g clip-path="url(#clip0)">
<path d="M9.69269 19.4497H8.36816V29.0002H9.69269V19.4497Z" fill="#1D1D20"/>
<path d="M15.1995 17.8462H13.875V29H15.1995V17.8462Z" fill="#1D1D20"/>
<path d="M4.18547 25.4448H2.93066V29.0001H4.18547V25.4448Z" fill="#1D1D20"/>
<path d="M20.637 13.8027H19.3125V28.9998H20.637V13.8027Z" fill="#1D1D20"/>
<path d="M26.0751 10.1777H24.8203V28.9998H26.0751V10.1777Z" fill="#1D1D20"/>
<path d="M27.8808 0.188221C27.7414 0.0697115 27.5671 0 27.3789 0H22.6036C22.2202 0 21.9065 0.313702 21.9065 0.697115C21.9065 1.08053 22.2202 1.39423 22.6036 1.39423L25.6849 1.38726L18.1491 8.93005L15.507 6.27404C15.3745 6.14159 15.2003 6.0649 15.012 6.05793C14.8238 6.0649 14.6495 6.14159 14.5171 6.27404L1.13247 19.6726C0.85362 19.9375 0.846648 20.3837 1.11155 20.6625C1.37646 20.9413 1.82261 20.9483 2.10146 20.6834C2.10843 20.6764 2.1154 20.6695 2.12237 20.6695L15.019 7.77284L17.6611 10.4079C17.7935 10.5334 17.9678 10.6031 18.156 10.6031C18.3373 10.6031 18.5185 10.5334 18.651 10.4079L26.6886 2.37019L26.6817 5.44447C26.6817 5.82788 26.9884 6.13461 27.3718 6.13461H27.3788C27.7622 6.14159 28.0689 5.83486 28.0759 5.45144C28.0759 5.45144 28.0759 5.45144 28.0759 5.44447L28.0829 0.676202C28.0829 0.494952 28.0063 0.320673 27.8808 0.188221Z" fill="#1D1D20"/>
</g>
<defs>
<clipPath id="clip0">
<rect width="29" height="29" fill="white"/>
</clipPath>
</defs>
</svg>
