<svg width="30" height="30" viewBox="0 0 30 30" fill="none" xmlns="http://www.w3.org/2000/svg">
<path d="M29.6693 4.72844C29.2257 4.28377 28.5071 4.2826 28.0621 4.7254L19.4337 13.3189L16.9401 10.8253C16.4962 10.3818 15.7773 10.3814 15.3333 10.8253L5.21969 20.939C4.77573 21.3826 4.77573 22.1023 5.21969 22.5458C5.44129 22.7678 5.73221 22.8788 6.02313 22.8788C6.31364 22.8788 6.60496 22.7678 6.82651 22.5458L16.1367 13.236L18.6288 15.7276C19.0723 16.1712 19.7894 16.1716 20.2341 15.7295L29.6659 6.33561C30.1106 5.89281 30.1121 5.17311 29.6693 4.72844Z" fill="#626884"/>
<path d="M28.8257 26.3636H2.27273V2.50001C2.27273 1.87236 1.76402 1.36365 1.13637 1.36365C0.50871 1.36365 0 1.87236 0 2.50001V27.5C0 28.1276 0.50871 28.6363 1.13637 28.6363H28.8257C29.4534 28.6363 29.9621 28.1276 29.9621 27.5C29.9621 26.8723 29.4534 26.3636 28.8257 26.3636Z" fill="#626884"/>
<path d="M28.8631 4.35608H20.3405C19.7128 4.35608 19.2041 4.86479 19.2041 5.49244C19.2041 6.1201 19.7128 6.62881 20.3405 6.62881H27.7268V14.0155C27.7268 14.6428 28.2355 15.1519 28.8632 15.1519C29.4909 15.1519 29.9995 14.6428 29.9995 14.0151V5.49244C29.9995 4.86479 29.4908 4.35608 28.8631 4.35608Z" fill="#626884"/>
</svg>
