<svg width="135" height="44" viewBox="0 0 135 44" fill="none" xmlns="http://www.w3.org/2000/svg">
<path d="M134.206 3.54732H101.207V11.7505H113.8V43.1295H121.613V11.7505H134.206V3.54732Z" fill="#6B7BC7"/>
<path d="M43.6533 41.7667H50.7154L61.6589 16.8498L72.2063 41.7667H79.567L61.4609 3.59463L43.6533 41.7667Z" fill="#6B7BC7"/>
<path d="M90.525 26.8059C92.7907 25.9288 94.7376 24.3861 96.1096 22.381C97.4815 20.3759 98.2141 18.0023 98.2108 15.5727C98.2108 12.3854 96.9455 9.32852 94.6928 7.07366C92.4402 4.8188 89.3845 3.55045 86.1972 3.54732H71.8838L74.5147 8.91264H84.6807C85.5177 8.91341 86.3463 9.07903 87.1193 9.40004C87.8922 9.72105 88.5944 10.1912 89.1857 10.7835C89.7769 11.3759 90.2457 12.0789 90.5653 12.8525C90.8849 13.626 91.049 14.4549 91.0482 15.2919C91.049 16.1289 90.8849 16.9578 90.5653 17.7313C90.2457 18.5049 89.7769 19.2079 89.1857 19.8003C88.5944 20.3926 87.8922 20.8628 87.1193 21.1838C86.3463 21.5048 85.5177 21.6704 84.6807 21.6712H80.7669L90.5397 41.6101H98.8611L90.525 26.8059Z" fill="#6B7BC7"/>
<path d="M22.6494 0H4.39551V42.1244H22.6494C28.2355 42.1244 33.5927 39.9054 37.5426 35.9554C41.4926 32.0055 43.7116 26.6483 43.7116 21.0622C43.7116 15.4762 41.4926 10.1189 37.5426 6.16898C33.5927 2.21905 28.2355 0 22.6494 0Z" fill="#F17F21"/>
<path d="M22.7237 33.9951C30.1521 33.9951 36.1739 27.9733 36.1739 20.5449C36.1739 13.1165 30.1521 7.09464 22.7237 7.09464C15.2953 7.09464 9.27344 13.1165 9.27344 20.5449C9.27344 27.9733 15.2953 33.9951 22.7237 33.9951Z" fill="white"/>
<path d="M22.7239 30.3C28.1115 30.3 32.479 25.9325 32.479 20.5449C32.479 15.1573 28.1115 10.7898 22.7239 10.7898C17.3363 10.7898 12.9688 15.1573 12.9688 20.5449C12.9688 25.9325 17.3363 30.3 22.7239 30.3Z" fill="#F17F21"/>
<path d="M11.3307 27.5361L10.0123 28.686L10.6479 29.4575L0 38.3554L1.81209 40.871L12.7556 31.8579L13.5242 32.7152L15.892 30.9563L11.3307 27.5361Z" fill="white"/>
<path d="M20.4561 14.0917C20.4561 14.0917 27.932 12.2323 28.4375 22.2713C28.4375 22.2713 30.1373 18.2569 27.6985 15.0791C25.0528 11.381 20.4561 14.0917 20.4561 14.0917Z" fill="white"/>
</svg>
