<svg width="40" height="37" viewBox="0 0 40 37" fill="none" xmlns="http://www.w3.org/2000/svg">
<path d="M26.7607 10.2547C23.9849 10.9917 22.6485 14.0924 24.087 16.5306L26.7607 13.9317V10.2547Z" fill="#6B7BC7"/>
<path d="M27.3032 33.7763H25.8067L25.3413 31.0621H14.3724L13.907 33.7763H12.4106C11.768 33.7763 11.2471 34.2826 11.2471 34.9071C11.2471 35.5317 11.768 36.038 12.4106 36.038H27.3032C27.9457 36.038 28.4666 35.5317 28.4666 34.9071C28.4666 34.2826 27.9457 33.7763 27.3032 33.7763Z" fill="#6B7BC7"/>
<path d="M25.7314 18.1299C28.2364 19.5262 31.4287 18.2331 32.1881 15.531H28.4052L25.7314 18.1299Z" fill="#6B7BC7"/>
<path d="M36.2231 0H21.0203V3.54349C21.0203 4.16805 20.4994 4.67439 19.8568 4.67439C19.2142 4.67439 18.6933 4.16805 18.6933 3.54349V0H3.49045C1.56582 0 0 1.52197 0 3.3927V25.4076C0 27.2783 1.56582 28.8003 3.49045 28.8003H36.2231C38.1478 28.8003 39.7136 27.2783 39.7136 25.4076V3.3927C39.7136 1.52197 38.1478 0 36.2231 0ZM17.2971 20.4316C17.2971 21.0562 16.7762 21.5625 16.1336 21.5625H6.20525C5.5627 21.5625 5.04177 21.0562 5.04177 20.4316V8.36867C5.04177 7.74411 5.5627 7.23777 6.20525 7.23777C6.8478 7.23777 7.36873 7.74411 7.36873 8.36867V19.3007H10.006V11.9875C10.006 11.363 10.5269 10.8566 11.1694 10.8566C11.812 10.8566 12.3329 11.363 12.3329 11.9875V19.3007H14.9702V15.6064C14.9702 14.9819 15.4911 14.4755 16.1336 14.4755C16.7762 14.4755 17.2971 14.9819 17.2971 15.6064V20.4316ZM27.9236 20.9594C24.2036 20.9594 21.1754 18.016 21.1754 14.4001C21.1754 10.7834 24.2026 7.84091 27.9236 7.84091C31.6446 7.84091 34.6718 10.7834 34.6718 14.4001C34.6718 18.0169 31.6446 20.9594 27.9236 20.9594Z" fill="#6B7BC7"/>
<path d="M29.0869 10.2547V13.2692H32.1882C31.7774 11.8072 30.591 10.654 29.0869 10.2547Z" fill="#6B7BC7"/>
</svg>
