<svg width="14" height="15" viewBox="0 0 14 15" fill="none" xmlns="http://www.w3.org/2000/svg">
<path d="M13.6843 8.0252C13.7855 7.23129 13.7012 6.46486 13.4718 5.75644C12.7095 3.40217 10.3181 1.67083 7.48145 1.64029V0.101315C7.48145 0.0158167 7.3634 -0.0299861 7.28582 0.0219238L3.78807 2.34871C3.73073 2.3884 3.73073 2.46779 3.78807 2.50444L7.28245 4.83122C7.3634 4.88313 7.47808 4.83733 7.47808 4.75183V3.21591C9.34332 3.24339 10.9354 4.28464 11.6201 5.75644C11.8798 6.31218 12.0113 6.92594 11.9742 7.57023C11.9236 8.45575 11.556 9.27104 10.9758 9.9306C10.6655 10.2818 10.7397 10.7947 11.1411 11.0604C11.5222 11.3138 12.0552 11.2436 12.3486 10.9077C13.0671 10.0955 13.546 9.10615 13.6843 8.0252ZM3.58569 5.0694C3.00217 5.7259 2.63452 6.54425 2.5873 7.42977C2.5502 8.07711 2.68511 8.69087 2.94146 9.24356C3.62617 10.7154 5.2182 11.7597 7.08344 11.7841V10.2482C7.08344 10.1627 7.2015 10.1169 7.27907 10.1688L10.7768 12.4956C10.8342 12.5353 10.8342 12.6146 10.7768 12.6513L7.28245 14.9781C7.2015 15.03 7.08681 14.9842 7.08681 14.8987V13.3597C4.25016 13.3322 1.85537 11.6009 1.09645 9.24356C0.867094 8.53514 0.786143 7.76871 0.883959 6.97479C1.01888 5.89385 1.49784 4.90451 2.21627 4.09227C2.51309 3.75638 3.04265 3.68615 3.42379 3.93959C3.8218 4.20525 3.896 4.71824 3.58569 5.0694Z" fill="white"/>
</svg>
