<svg width="9" height="9" viewBox="0 0 9 9" fill="none" xmlns="http://www.w3.org/2000/svg">
<path d="M3.96341 0C1.77805 0 0 1.77805 0 3.96341C0 6.1489 1.77805 7.92682 3.96341 7.92682C6.1489 7.92682 7.92682 6.1489 7.92682 3.96341C7.92682 1.77805 6.1489 0 3.96341 0ZM3.96341 7.19513C2.18146 7.19513 0.731707 5.74538 0.731707 3.96343C0.731707 2.18148 2.18146 0.731707 3.96341 0.731707C5.74536 0.731707 7.19511 2.18146 7.19511 3.96341C7.19511 5.74536 5.74536 7.19513 3.96341 7.19513Z" fill="white"/>
<path d="M8.89261 8.37566L6.79505 6.27809C6.65212 6.13517 6.42066 6.13517 6.27773 6.27809C6.1348 6.4209 6.1348 6.65261 6.27773 6.79542L8.37529 8.89298C8.44674 8.96444 8.5403 9.00017 8.63395 9.00017C8.72749 9.00017 8.82114 8.96444 8.89261 8.89298C9.03554 8.75018 9.03554 8.51846 8.89261 8.37566Z" fill="white"/>
</svg>
