<svg width="25" height="25" viewBox="0 0 25 25" fill="none" xmlns="http://www.w3.org/2000/svg">
<path d="M5.93727 10.7043L10.3358 7.2979L12.1979 8.97085C12.4472 9.19504 12.8208 9.20862 13.0859 9.00338L16.8166 6.11417L16.7164 6.9386C16.6921 7.1394 16.8351 7.32203 17.0359 7.34645C17.2376 7.37087 17.4194 7.22712 17.4438 7.02696C17.6359 5.44051 17.6514 5.33789 17.6523 5.29388C17.656 5.08439 17.4847 4.91725 17.2792 4.92096H15.5243C15.322 4.92096 15.158 5.08493 15.158 5.28729C15.158 5.48965 15.322 5.65362 15.5243 5.65362H16.2147L12.6633 8.40406L10.8011 6.73097C10.5517 6.50702 10.1783 6.49334 9.91316 6.69858L5.48874 10.125C5.32877 10.2489 5.29952 10.479 5.42338 10.6389C5.54696 10.7986 5.77721 10.8283 5.93727 10.7043Z" fill="#1D1D20"/>
<path d="M18.2016 14.8109H17.6516V8.8858C17.6516 8.40288 17.0955 8.12984 16.7135 8.4275L15.7163 9.20461C15.5864 9.30586 15.5118 9.4584 15.5118 9.6231V14.8109H14.263V11.4229C14.263 10.9821 13.7557 10.7327 13.4068 11.004L12.328 11.8428C12.1979 11.9441 12.1232 12.0967 12.1232 12.2615V14.8109H10.8744V10.2612C10.8744 9.82526 10.377 9.57533 10.027 9.83562L8.94833 10.6384C8.8145 10.738 8.73459 10.8971 8.73459 11.0639V12.1268C8.73459 12.3291 8.89856 12.4931 9.10092 12.4931C9.30328 12.4931 9.46725 12.3291 9.46725 12.1268V11.1655L10.1417 10.6636V14.8109H9.46725V13.8394C9.46725 13.637 9.30328 13.4731 9.10092 13.4731C8.89856 13.4731 8.73459 13.637 8.73459 13.8394V14.8109H7.48575V12.8737C7.48575 12.4313 6.97592 12.1833 6.62766 12.4563L5.54924 13.3025C5.42005 13.4037 5.346 13.5559 5.346 13.72V14.8109H4.79602C4.59366 14.8109 4.42969 14.9748 4.42969 15.1772C4.42969 15.3795 4.59366 15.5435 4.79602 15.5435H18.2016C18.4039 15.5435 18.5679 15.3795 18.5679 15.1772C18.5679 14.9748 18.4039 14.8109 18.2016 14.8109ZM16.2445 9.72186L16.919 9.19625V14.8109H16.2445V9.72186ZM12.8558 12.3604L13.5303 11.836V14.8109H12.8558V12.3604ZM6.07856 13.8183L6.75304 13.2891V14.8109H6.07856V13.8183Z" fill="#1D1D20"/>
<path d="M8.54312 17.425H4.79602C4.59366 17.425 4.42969 17.589 4.42969 17.7914C4.42969 17.9937 4.59366 18.1577 4.79602 18.1577H8.54317C8.74553 18.1577 8.9095 17.9937 8.9095 17.7914C8.9095 17.589 8.74548 17.425 8.54312 17.425Z" fill="#1D1D20"/>
<path d="M8.54312 19.1184H4.79602C4.59366 19.1184 4.42969 19.2824 4.42969 19.4847C4.42969 19.6871 4.59366 19.8511 4.79602 19.8511H8.54317C8.74553 19.8511 8.9095 19.6871 8.9095 19.4847C8.9095 19.2824 8.74548 19.1184 8.54312 19.1184Z" fill="#1D1D20"/>
<path d="M21.0048 2.18684H20.4258V1.42253C20.4259 0.638145 19.7877 0 19.0033 0H7.34519C6.94824 0 6.59094 0.164946 6.3393 0.416638C6.27009 0.48585 6.89866 -0.142819 2.966 3.79053C2.7229 4.04549 2.57227 4.39287 2.57227 4.77288V21.3905C2.57227 22.1749 3.21041 22.8131 3.99479 22.8131H4.57374V23.5774C4.57374 24.3618 5.21189 24.9999 5.99627 24.9999H21.0048C21.7892 24.9999 22.4273 24.3618 22.4273 23.5774V3.60937C22.4273 2.82503 21.7892 2.18684 21.0048 2.18684ZM6.54137 1.25074V3.49414C6.54137 3.756 6.32831 3.9691 6.06641 3.9691H3.82301L6.54137 1.25074ZM21.6946 23.5775C21.6946 23.9579 21.3852 24.2673 21.0048 24.2673H5.99627C5.61587 24.2673 5.3064 23.9579 5.3064 23.5775V22.8131H19.0033C19.7877 22.8131 20.4259 22.175 20.4259 21.3906V20.0339C20.4259 19.8315 20.2619 19.6676 20.0595 19.6676C19.8572 19.6676 19.6932 19.8315 19.6932 20.0339V21.3906C19.6932 21.771 19.3837 22.0805 19.0033 22.0805H3.99484C3.61445 22.0805 3.30497 21.771 3.30497 21.3906V4.77292C3.30497 4.74899 3.30619 4.72525 3.30859 4.70176H6.06646C6.73235 4.70176 7.27407 4.16003 7.27407 3.49414V0.736272C7.34109 0.729385 6.79081 0.733928 19.0034 0.732658C19.3838 0.732658 19.6933 1.04213 19.6933 1.42253V18.3213C19.6933 18.5236 19.8572 18.6876 20.0596 18.6876C20.262 18.6876 20.4259 18.5236 20.4259 18.3213V2.9195H21.0049C21.3853 2.9195 21.6947 3.22897 21.6947 3.60937V23.5775H21.6946Z" fill="#1D1D20"/>
</svg>
