<svg width="28" height="28" viewBox="0 0 28 28" fill="none" xmlns="http://www.w3.org/2000/svg">
<path d="M12.4219 0C12.1198 0 11.875 0.244836 11.875 0.546875V3.91929C11.875 4.22127 12.1198 4.46616 12.4219 4.46616C12.7239 4.46616 12.9688 4.22133 12.9688 3.91929V0.546875C12.9688 0.244836 12.7239 0 12.4219 0Z" fill="black"/>
<path d="M19.599 7.17871H16.2266C15.9245 7.17871 15.6797 7.42355 15.6797 7.72559C15.6797 8.02762 15.9245 8.27246 16.2266 8.27246H19.599C19.901 8.27246 20.1459 8.02762 20.1459 7.72559C20.1459 7.42355 19.901 7.17871 19.599 7.17871Z" fill="black"/>
<path d="M8.61455 7.177H5.24219C4.94015 7.177 4.69531 7.42184 4.69531 7.72388C4.69531 8.02592 4.94015 8.27075 5.24219 8.27075H8.6146C8.91659 8.27075 9.16142 8.02592 9.16142 7.72388C9.16142 7.42184 8.91659 7.177 8.61455 7.177Z" fill="black"/>
<path d="M9.71627 4.24556L8.12404 2.65333C7.91049 2.43978 7.56421 2.43978 7.3506 2.65333C7.13704 2.86688 7.13704 3.21317 7.3506 3.42677L8.94288 5.019C9.04968 5.12581 9.18963 5.17918 9.32957 5.17918C9.46952 5.17918 9.60952 5.12581 9.71627 5.019C9.92982 4.80545 9.92982 4.45916 9.71627 4.24556Z" fill="black"/>
<path d="M17.4926 2.65431C17.2791 2.44075 16.9328 2.44075 16.7192 2.65431L15.127 4.24653C14.9134 4.46009 14.9134 4.80637 15.127 5.01998C15.2338 5.12678 15.3738 5.18016 15.5137 5.18016C15.6537 5.18016 15.7937 5.12678 15.9004 5.01998L17.4926 3.42775C17.7062 3.2142 17.7062 2.86792 17.4926 2.65431Z" fill="black"/>
<path d="M21.2812 12.4526C20.9121 12.4526 20.566 12.5524 20.2677 12.7258C20.0191 11.8898 19.2439 11.2781 18.3281 11.2781C17.7461 11.2781 17.2211 11.5254 16.8516 11.9201C16.4821 11.5254 15.957 11.2781 15.375 11.2781C15.0399 11.2781 14.7239 11.3605 14.4453 11.5052V7.72461C14.4453 6.60887 13.5376 5.70117 12.4219 5.70117C11.3061 5.70117 10.3984 6.60887 10.3984 7.72461V10.6081C10.3984 10.9102 10.6433 11.155 10.9453 11.155C11.2474 11.155 11.4922 10.9102 11.4922 10.6081V7.72461C11.4922 7.21197 11.9092 6.79492 12.4219 6.79492C12.9345 6.79492 13.3516 7.21197 13.3516 7.72461V16.8797C13.3516 17.1818 13.5964 17.4266 13.8984 17.4266C14.2005 17.4266 14.4453 17.1818 14.4453 16.8797V13.3015C14.4453 12.7889 14.8624 12.3718 15.375 12.3718C15.8876 12.3718 16.3047 12.7889 16.3047 13.3015V13.8293V16.8797C16.3047 17.1818 16.5495 17.4266 16.8516 17.4266C17.1536 17.4266 17.3984 17.1818 17.3984 16.8797V13.8293V13.3015C17.3984 12.7889 17.8155 12.3718 18.3281 12.3718C18.8408 12.3718 19.2578 12.7889 19.2578 13.3015V14.4759V15.4218V16.8798C19.2578 17.1818 19.5026 17.4267 19.8047 17.4267C20.1067 17.4267 20.3516 17.1818 20.3516 16.8798V15.4218V14.4759C20.3516 13.9633 20.7686 13.5463 21.2812 13.5463C21.7939 13.5463 22.2109 13.9633 22.2109 14.4759V20.1948C22.2109 20.6022 22.1742 21.0101 22.1018 21.4071C22.0476 21.7043 22.2445 21.989 22.5416 22.0432C22.5748 22.0492 22.6078 22.0522 22.6404 22.0522C22.8995 22.0522 23.1296 21.8673 23.1778 21.6033C23.262 21.1417 23.3047 20.6678 23.3047 20.1948V14.4759C23.3047 13.3603 22.397 12.4526 21.2812 12.4526Z" fill="black"/>
<path d="M20.8484 25.1302C20.6424 24.9093 20.2963 24.8974 20.0755 25.1034C18.8293 26.266 17.2038 26.9062 15.4984 26.9062C12.9399 26.9062 10.5677 25.4175 9.455 23.1136L6.93593 17.8976C6.70871 17.4272 6.88518 16.854 7.33761 16.5928C7.80541 16.3228 8.41446 16.4783 8.69556 16.9394L10.4772 19.8627C10.6048 20.072 10.856 20.1709 11.092 20.1047C11.328 20.0384 11.4911 19.8232 11.4911 19.5781V14.2188C11.4911 13.9167 11.2462 13.6719 10.9442 13.6719C10.6422 13.6719 10.3973 13.9167 10.3973 14.2188V17.63L9.62951 16.3702C9.032 15.3898 7.78501 15.0715 6.79074 15.6456C5.84492 16.1917 5.47605 17.3898 5.95107 18.3732L8.47014 23.5892C9.10921 24.9125 10.1049 26.0249 11.3496 26.806C12.5943 27.5871 14.029 28 15.4985 28C17.4818 28 19.3722 27.2553 20.8216 25.9031C21.0425 25.6971 21.0545 25.351 20.8484 25.1302Z" fill="black"/>
<path d="M22.2636 23.275C22.1619 23.1733 22.0208 23.1147 21.877 23.1147C21.7331 23.1147 21.592 23.1733 21.4903 23.275C21.3886 23.3767 21.3301 23.5178 21.3301 23.6616C21.3301 23.806 21.3886 23.9465 21.4903 24.0483C21.592 24.15 21.7331 24.2085 21.877 24.2085C22.0208 24.2085 22.1619 24.15 22.2636 24.0483C22.3653 23.9465 22.4238 23.806 22.4238 23.6616C22.4238 23.5178 22.3653 23.3767 22.2636 23.275Z" fill="black"/>
<path d="M11.331 12.0821C11.2293 11.9804 11.0882 11.9219 10.9443 11.9219C10.8005 11.9219 10.6594 11.9804 10.5577 12.0821C10.456 12.1838 10.3975 12.3249 10.3975 12.4688C10.3975 12.6126 10.456 12.7537 10.5577 12.8554C10.6594 12.9571 10.8005 13.0156 10.9443 13.0156C11.0882 13.0156 11.2293 12.9571 11.331 12.8554C11.4327 12.7537 11.4912 12.6126 11.4912 12.4688C11.4912 12.3249 11.4327 12.1838 11.331 12.0821Z" fill="black"/>
</svg>
