<svg width="24" height="24" viewBox="0 0 24 24" fill="none" xmlns="http://www.w3.org/2000/svg">
<path fill-rule="evenodd" clip-rule="evenodd" d="M18.5 23.5H5.5C4.3955 23.5 3.5 22.6045 3.5 21.5V2.5C3.5 1.3955 4.3955 0.5 5.5 0.5H14.9865C14.9875 0.5 14.989 0.5 14.99 0.5H15C15.16 0.5 15.2965 0.5805 15.388 0.6975L20.3025 5.612C20.42 5.7035 20.5 5.84 20.5 6V6.0105C20.5 6.0115 20.5 6.012 20.5 6.013V21.5C20.5 22.6045 19.6045 23.5 18.5 23.5ZM15.5 2.1905V5.5H18.8095L15.5 2.1905ZM19.5 6.5H15C14.7235 6.5 14.5 6.276 14.5 6V1.5H5.5C4.948 1.5 4.5 1.948 4.5 2.5V21.5C4.5 22.052 4.948 22.5 5.5 22.5H18.5C19.052 22.5 19.5 22.052 19.5 21.5V6.5ZM16.5 19.5H7.5C7.2235 19.5 7 19.2765 7 19C7 18.724 7.2235 18.5 7.5 18.5H16.5C16.7765 18.5 17 18.724 17 19C17 19.2765 16.7765 19.5 16.5 19.5ZM16.5 15.5H7.5C7.2235 15.5 7 15.2765 7 15C7 14.724 7.2235 14.5 7.5 14.5H16.5C16.7765 14.5 17 14.724 17 15C17 15.2765 16.7765 15.5 16.5 15.5ZM16.5 11.5H7.5C7.2235 11.5 7 11.2765 7 11C7 10.724 7.2235 10.5 7.5 10.5H16.5C16.7765 10.5 17 10.724 17 11C17 11.2765 16.7765 11.5 16.5 11.5Z" fill="white"/>
</svg>
