<svg width="25" height="25" viewBox="0 0 25 25" fill="none" xmlns="http://www.w3.org/2000/svg">
<g clip-path="url(#clip0)">
<path d="M10.3799 9.7501C10.1776 9.7501 10.0137 9.91406 10.0137 10.1163V14.6399C10.0137 14.8421 10.1776 15.0061 10.3799 15.0061H18.8661C19.0684 15.0061 19.2323 14.8421 19.2323 14.6399V6.14575C19.2323 5.94351 19.0684 5.77954 18.8661 5.77954H10.3799C10.1776 5.77954 10.0137 5.94351 10.0137 6.14575V8.41494C10.0137 8.61719 10.1776 8.78115 10.3799 8.78115C10.5821 8.78115 10.7461 8.61719 10.7461 8.41494V6.51196H12.908V10.0664C12.908 10.1925 12.9728 10.3097 13.0796 10.3767C13.1865 10.4436 13.3201 10.451 13.4336 10.3961L14.623 9.821L15.8123 10.3961C15.8628 10.4205 15.9174 10.4326 15.9717 10.4326C16.0395 10.4326 16.1071 10.4138 16.1664 10.3767C16.2731 10.3097 16.338 10.1925 16.338 10.0664V6.51196H18.4999V14.2737H10.7461V10.1163C10.7461 9.91406 10.5821 9.7501 10.3799 9.7501ZM15.6055 9.48252L14.7824 9.08452C14.732 9.06016 14.6775 9.048 14.6229 9.048C14.5684 9.048 14.5139 9.06021 14.4635 9.08452L13.6404 9.48252V6.51191H15.6055V9.48252Z" fill="#1D1D20"/>
<path d="M15.7629 12.616C15.9651 12.616 16.1291 12.452 16.1291 12.2498C16.1291 12.0475 15.9651 11.8835 15.7629 11.8835H13.4824C13.2802 11.8835 13.1162 12.0475 13.1162 12.2498C13.1162 12.452 13.2802 12.616 13.4824 12.616H15.7629Z" fill="#1D1D20"/>
<path d="M13.6838 18.9841C13.9936 19.0175 14.3095 19.0344 14.6229 19.0344C19.3987 19.0344 23.284 15.1498 23.284 10.375C23.284 5.6002 19.3987 1.71558 14.6229 1.71558C9.84722 1.71558 5.96191 5.6002 5.96191 10.375C5.96191 12.2354 6.54316 14.0084 7.64282 15.5024C8.72026 16.9663 10.1982 18.0386 11.917 18.6033C12.109 18.6665 12.3161 18.5618 12.3792 18.3697C12.4423 18.1775 12.3377 17.9706 12.1456 17.9075C10.5724 17.3906 9.21934 16.4088 8.23267 15.0683C7.22627 13.701 6.69434 12.0781 6.69434 10.375C6.69434 6.004 10.2511 2.448 14.6229 2.448C18.9948 2.448 22.5516 6.00405 22.5516 10.375C22.5516 14.7459 18.9948 18.302 14.6229 18.302C14.3356 18.302 14.0461 18.2865 13.7624 18.2559C13.5613 18.234 13.3807 18.3796 13.359 18.5807C13.3373 18.7818 13.4828 18.9624 13.6838 18.9841Z" fill="#1D1D20"/>
<path d="M22.1348 3.21709C21.9952 3.0707 21.7634 3.06519 21.617 3.20479C21.4706 3.34434 21.4651 3.57612 21.6047 3.72256C23.3219 5.52344 24.2676 7.88603 24.2676 10.3751C24.2676 15.6922 19.941 20.0179 14.6229 20.0179C9.30479 20.0179 4.97823 15.6922 4.97823 10.3751C4.97823 5.05811 9.30484 0.732422 14.6229 0.732422C16.7399 0.732422 18.749 1.40508 20.4329 2.67773C20.5943 2.79971 20.824 2.76772 20.9459 2.6064C21.0678 2.44502 21.0358 2.21538 20.8745 2.09346C19.0624 0.723877 16.9006 0 14.6229 0C8.90098 0 4.24586 4.65425 4.24586 10.3751C4.24586 13.1086 5.30865 15.5986 7.04278 17.4537L6.48038 18.016C6.06021 17.8003 5.5359 17.857 5.16832 18.1921L4.50098 18.8005C4.35152 18.9368 4.34083 19.1684 4.47711 19.3179C4.61334 19.4673 4.84498 19.478 4.99444 19.3417L5.66178 18.7333C5.83155 18.5786 6.0918 18.5846 6.2543 18.747C6.41676 18.9094 6.42271 19.1695 6.26798 19.3392L2.84864 23.088L1.91231 22.1519L3.76041 20.4669C3.90987 20.3306 3.92056 20.099 3.78429 19.9496C3.64801 19.8 3.41637 19.7894 3.26695 19.9257L0.474374 22.4718C0.177987 22.742 0.00962752 23.1117 0.000399004 23.5126C-0.00882951 23.9136 0.142294 24.2906 0.425936 24.5742C0.701424 24.8496 1.06495 25 1.45294 25C1.46446 25 1.47603 24.9999 1.48761 24.9996C1.88858 24.9904 2.25826 24.8221 2.52852 24.5258L6.80909 19.8328C7.13971 19.4702 7.19942 18.9553 6.99395 18.5382L7.56129 17.971C9.4148 19.6947 11.8979 20.7503 14.6229 20.7503C20.3449 20.7503 25 16.096 25 10.3751C25 7.69692 23.9825 5.15483 22.1348 3.21709ZM1.47076 24.2674C1.27227 24.2712 1.08458 24.197 0.943807 24.0562C0.803036 23.9155 0.728085 23.7285 0.732626 23.5295C0.737215 23.3305 0.820711 23.1471 0.967831 23.013L1.37047 22.6459L2.3545 23.6297L1.98741 24.0322C1.85328 24.1793 1.66978 24.2628 1.47076 24.2674Z" fill="#1D1D20"/>
</g>
<defs>
<clipPath id="clip0">
<rect width="25" height="25" fill="white"/>
</clipPath>
</defs>
</svg>
