<svg width="30" height="31" viewBox="0 0 30 31" fill="none" xmlns="http://www.w3.org/2000/svg">
<path d="M29.6693 5.30503C29.2257 4.86036 28.5071 4.85919 28.0621 5.30198L19.4337 13.8955L16.9401 11.4019C16.4962 10.9584 15.7773 10.958 15.3333 11.4019L5.21969 21.5156C4.77573 21.9592 4.77573 22.6789 5.21969 23.1224C5.44129 23.3444 5.73221 23.4553 6.02313 23.4553C6.31364 23.4553 6.60496 23.3444 6.82651 23.1224L16.1367 13.8126L18.6288 16.3042C19.0723 16.7478 19.7894 16.7482 20.2341 16.3061L29.6659 6.91219C30.1106 6.4694 30.1121 5.74969 29.6693 5.30503Z" fill="black"/>
<path d="M28.8257 26.9404H2.27273V3.07679C2.27273 2.44914 1.76402 1.94043 1.13637 1.94043C0.50871 1.94043 0 2.44914 0 3.07679V28.0768C0 28.7044 0.50871 29.2131 1.13637 29.2131H28.8257C29.4534 29.2131 29.9621 28.7044 29.9621 28.0768C29.9621 27.4491 29.4534 26.9404 28.8257 26.9404Z" fill="black"/>
<path d="M28.8631 4.93262H20.3405C19.7128 4.93262 19.2041 5.44133 19.2041 6.06898C19.2041 6.69664 19.7128 7.20535 20.3405 7.20535H27.7268V14.5921C27.7268 15.2193 28.2355 15.7284 28.8632 15.7284C29.4909 15.7284 29.9995 15.2193 29.9995 14.5917V6.06898C29.9995 5.44133 29.4908 4.93262 28.8631 4.93262Z" fill="black"/>
</svg>
