<svg width="29" height="29" viewBox="0 0 29 29" fill="none" xmlns="http://www.w3.org/2000/svg">
<circle cx="14.5" cy="14.5" r="14.5" fill="#F17F21"/>
<g clip-path="url(#clip0)">
<path d="M17.767 13.1897L14.6312 10.0541C14.5589 9.98188 14.4418 9.98188 14.3696 10.0541L11.2339 13.1897C11.1616 13.262 11.1616 13.3791 11.2339 13.4513L12.0693 14.2868C12.1039 14.3215 12.1509 14.341 12.2001 14.341C12.2491 14.341 12.2962 14.3215 12.3309 14.2868L13.6754 12.9424V18.8149C13.6754 18.917 13.7583 18.9999 13.8605 18.9999H15.1404C15.2425 18.9999 15.3254 18.917 15.3254 18.8149V12.9425L16.6698 14.2869C16.7392 14.3563 16.862 14.3563 16.9314 14.2869L17.7669 13.4514C17.8016 13.4167 17.8211 13.3697 17.8211 13.3206C17.8212 13.2716 17.8017 13.2244 17.767 13.1897Z" fill="white"/>
</g>
<defs>
<clipPath id="clip0">
<rect width="9" height="9" fill="white" transform="translate(10 10)"/>
</clipPath>
</defs>
</svg>
