<svg width="42" height="42" viewBox="0 0 42 42" fill="none" xmlns="http://www.w3.org/2000/svg">
<rect width="42" height="42" rx="5" fill="#EEEBE8"/>
<path d="M21.0001 30.1193C22.0373 30.1193 22.8781 29.2785 22.8781 28.2413C22.8781 27.2041 22.0373 26.3633 21.0001 26.3633C19.9629 26.3633 19.1221 27.2041 19.1221 28.2413C19.1221 29.2785 19.9629 30.1193 21.0001 30.1193Z" fill="#252733"/>
<path d="M20.9999 23.9498H20.9879C20.8237 23.9483 20.6614 23.9145 20.5103 23.8503C20.3592 23.7861 20.2222 23.6927 20.1072 23.5755C19.9923 23.4583 19.9015 23.3195 19.8402 23.1672C19.7789 23.0149 19.7482 22.852 19.7499 22.6878C19.7649 21.0498 21.1119 19.3618 22.2999 17.8728C22.5449 17.5658 22.7799 17.2728 22.9829 17.0008C23.1446 16.766 23.2367 16.4903 23.2486 16.2054C23.2604 15.9206 23.1916 15.6382 23.0499 15.3908C22.8668 15.009 22.5847 14.6833 22.2329 14.4477C21.8812 14.212 21.4726 14.0749 21.0499 14.0508C19.6029 14.0508 18.4199 14.9208 18.4199 15.9508C18.4199 16.2823 18.2882 16.6002 18.0538 16.8347C17.8194 17.0691 17.5014 17.2008 17.1699 17.2008C16.8384 17.2008 16.5205 17.0691 16.286 16.8347C16.0516 16.6002 15.9199 16.2823 15.9199 15.9508C15.9199 13.5238 18.2009 11.5508 21.0049 11.5508H21.1249C22.0034 11.5836 22.8564 11.8555 23.5917 12.3373C24.3271 12.8191 24.917 13.4924 25.2979 14.2848C25.6478 14.945 25.8044 15.6905 25.7498 16.4358C25.6951 17.181 25.4314 17.8957 24.9889 18.4978C24.7719 18.7888 24.5209 19.1028 24.2589 19.4318C23.4589 20.4318 22.2589 21.9318 22.2589 22.7108C22.2558 23.0419 22.1215 23.3582 21.8855 23.5905C21.6495 23.8227 21.331 23.9519 20.9999 23.9498Z" fill="#252733"/>
</svg>
